<?xml version="1.0" encoding="UTF-8" standalone="no"?>
<svg
   xmlns:dc="http://purl.org/dc/elements/1.1/"
   xmlns:cc="http://creativecommons.org/ns#"
   xmlns:rdf="http://www.w3.org/1999/02/22-rdf-syntax-ns#"
   xmlns:svg="http://www.w3.org/2000/svg"
   xmlns="http://www.w3.org/2000/svg"
   xmlns:sodipodi="http://sodipodi.sourceforge.net/DTD/sodipodi-0.dtd"
   xmlns:inkscape="http://www.inkscape.org/namespaces/inkscape"
   sodipodi:docname="play.svg"
   inkscape:version="1.0rc1 (09960d6f05, 2020-04-09)"
   id="svg8"
   version="1.1"
   viewBox="0 0 21.12443 21.112141"
   height="21.112141mm"
   width="21.12443mm">
  <defs
     id="defs2">
    <pattern
       id="EMFhbasepattern"
       patternUnits="userSpaceOnUse"
       width="6"
       height="6"
       x="0"
       y="0" />
  </defs>
  <sodipodi:namedview
     inkscape:window-maximized="1"
     inkscape:window-y="-8"
     inkscape:window-x="-8"
     inkscape:window-height="1017"
     inkscape:window-width="1920"
     fit-margin-bottom="0"
     fit-margin-right="0"
     fit-margin-left="0"
     fit-margin-top="0"
     showgrid="false"
     inkscape:document-rotation="0"
     inkscape:current-layer="layer1"
     inkscape:document-units="mm"
     inkscape:cy="705.61123"
     inkscape:cx="1825.6345"
     inkscape:zoom="0.35"
     inkscape:pageshadow="2"
     inkscape:pageopacity="0.0"
     borderopacity="1.0"
     bordercolor="#666666"
     pagecolor="#ffffff"
     id="base" />
  <metadata
     id="metadata5">
    <rdf:RDF>
      <cc:Work
         rdf:about="">
        <dc:format>image/svg+xml</dc:format>
        <dc:type
           rdf:resource="http://purl.org/dc/dcmitype/StillImage" />
        <dc:title></dc:title>
      </cc:Work>
    </rdf:RDF>
  </metadata>
  <g
     transform="translate(377.19912,129.24059)"
     id="layer1"
     inkscape:groupmode="layer"
     inkscape:label="Capa 1">
    <path
       inkscape:connector-curvature="0"
       style="fill:#ffffff;fill-opacity:1;fill-rule:evenodd;stroke:none;stroke-width:0.264583"
       d="m -363.13617,-119.00441 -3.15066,-1.81932 -3.14066,-1.81932 c -0.19004,-0.10996 -0.36007,-0.04 -0.36007,0.19993 v 3.63864 3.62865 c 0,0.22991 0.14002,0.32988 0.35007,0.20992 l 3.15066,-1.81932 3.15066,-1.80933 c 0.19004,-0.10996 0.21004,-0.28989 0,-0.40985 z m -3.50074,-10.23618 c 2.92062,0 5.56117,1.17956 7.47157,3.08885 1.9104,1.91928 3.09065,4.5583 3.09065,7.46722 0,2.91891 -1.18025,5.55793 -3.09065,7.46722 -1.9104,1.90929 -4.55095,3.08885 -7.47157,3.08885 -2.9106,0 -5.55116,-1.17956 -7.47156,-3.08885 -1.9104,-1.90929 -3.09065,-4.54831 -3.09065,-7.46722 0,-2.90892 1.18025,-5.54794 3.09065,-7.46722 1.9204,-1.90929 4.56096,-3.08885 7.47156,-3.08885 z m 6.81143,3.7486 c -1.74036,-1.73935 -4.15087,-2.81895 -6.81143,-2.81895 -2.66055,0 -5.07106,1.0796 -6.81142,2.81895 -1.74037,1.73935 -2.82059,4.14846 -2.82059,6.80747 0,2.65901 1.08022,5.06811 2.82059,6.80746 1.74036,1.73935 4.15087,2.81895 6.81142,2.81895 2.66056,0 5.07107,-1.0796 6.81143,-2.81895 1.74037,-1.73935 2.82059,-4.14845 2.82059,-6.80746 0,-2.65901 -1.08022,-5.06812 -2.82059,-6.80747 z"
       id="path836" />
  </g>
</svg>
