<?xml version="1.0" encoding="UTF-8" standalone="no"?>
<svg
   xmlns:dc="http://purl.org/dc/elements/1.1/"
   xmlns:cc="http://creativecommons.org/ns#"
   xmlns:rdf="http://www.w3.org/1999/02/22-rdf-syntax-ns#"
   xmlns:svg="http://www.w3.org/2000/svg"
   xmlns="http://www.w3.org/2000/svg"
   xmlns:sodipodi="http://sodipodi.sourceforge.net/DTD/sodipodi-0.dtd"
   xmlns:inkscape="http://www.inkscape.org/namespaces/inkscape"
   width="21.12443mm"
   height="21.112141mm"
   viewBox="0 0 21.12443 21.112141"
   version="1.1"
   id="svg8"
   inkscape:version="1.0 (4035a4fb49, 2020-05-01)"
   sodipodi:docname="vermas.svg">
  <defs
     id="defs2">
    <pattern
       y="0"
       x="0"
       height="6"
       width="6"
       patternUnits="userSpaceOnUse"
       id="EMFhbasepattern" />
    <pattern
       id="EMFhbasepattern-0"
       patternUnits="userSpaceOnUse"
       width="6"
       height="6"
       x="0"
       y="0" />
  </defs>
  <sodipodi:namedview
     id="base"
     pagecolor="#ffffff"
     bordercolor="#666666"
     borderopacity="1.0"
     inkscape:pageopacity="0.0"
     inkscape:pageshadow="2"
     inkscape:zoom="6.2923913"
     inkscape:cx="50"
     inkscape:cy="57.142857"
     inkscape:document-units="mm"
     inkscape:current-layer="layer1"
     inkscape:document-rotation="0"
     showgrid="false"
     fit-margin-top="0"
     fit-margin-left="0"
     fit-margin-right="0"
     fit-margin-bottom="0"
     inkscape:window-width="1920"
     inkscape:window-height="1017"
     inkscape:window-x="-8"
     inkscape:window-y="-8"
     inkscape:window-maximized="1" />
  <metadata
     id="metadata5">
    <rdf:RDF>
      <cc:Work
         rdf:about="">
        <dc:format>image/svg+xml</dc:format>
        <dc:type
           rdf:resource="http://purl.org/dc/dcmitype/StillImage" />
        <dc:title></dc:title>
      </cc:Work>
    </rdf:RDF>
  </metadata>
  <g
     inkscape:label="Capa 1"
     inkscape:groupmode="layer"
     id="layer1"
     transform="translate(377.19912,129.24059)">
    <path
       style="fill:#ffffff;fill-opacity:1;fill-rule:evenodd;stroke:none;stroke-width:0.264583"
       d="m -366.63691,-126.67154 v 0 c 0.4701,0 0.85018,0.37986 0.85018,0.84968 v 6.28766 h 6.29132 c 0.4701,0 0.85018,0.37986 0.85018,0.84969 v 0 c 0,0.46982 -0.38008,0.84968 -0.85018,0.84968 h -6.29132 v 6.28766 c 0,0.46982 -0.38008,0.84968 -0.85018,0.84968 v 0 c -0.4701,0 -0.85018,-0.37986 -0.85018,-0.84968 v -6.28766 h -6.29131 c -0.4701,0 -0.85018,-0.37986 -0.85018,-0.84968 v 0 c 0,-0.46983 0.38008,-0.84969 0.85018,-0.84969 h 6.29131 v -6.28766 c 0,-0.46982 0.38008,-0.84968 0.85018,-0.84968 z"
       id="path835" />
  </g>
</svg>
